<svg width="40" height="40" viewBox="0 0 40 40" fill="none" xmlns="http://www.w3.org/2000/svg">
<rect width="40" height="40" rx="8" fill="white"/>
<g clip-path="url(#clip0_9_3115)">
<path d="M8.62542 8.76915C6.58225 10.8914 7.00042 13.1458 7.00042 19.9947C7.00042 25.6822 6.00809 31.3837 11.2016 32.726C12.8233 33.1431 27.1927 33.1431 28.8123 32.7238C30.9746 32.1659 32.7339 30.412 32.9744 27.3537C33.008 26.9269 33.008 13.07 32.9733 12.6345C32.7177 9.3769 30.7124 7.49949 28.0702 7.11924C27.4646 7.03149 27.3433 7.00549 24.2363 7.00007C13.2155 7.00549 10.7997 6.51474 8.62542 8.76915V8.76915Z" fill="black"/>
<path d="M19.9976 10.4004C16.064 10.4004 12.3286 10.0505 10.9019 13.7121C10.3126 15.2245 10.3981 17.1885 10.3981 20.0009C10.3981 22.4687 10.3191 24.7881 10.9019 26.2885C12.3254 29.9524 16.0911 29.6014 19.9954 29.6014C23.7621 29.6014 27.6459 29.9935 29.09 26.2885C29.6804 24.761 29.5937 22.8262 29.5937 20.0009C29.5937 16.2504 29.8006 13.8291 27.9817 12.0113C26.1401 10.1696 23.6495 10.4004 19.9932 10.4004H19.9976ZM19.1374 12.1305C27.3426 12.1175 28.3869 11.2053 27.8106 23.877C27.6058 28.3588 24.1933 27.867 19.9986 27.867C12.3503 27.867 12.1304 27.6481 12.1304 19.9965C12.1304 12.2561 12.7371 12.1348 19.1374 12.1283V12.1305ZM25.1217 13.724C24.4858 13.724 23.9701 14.2397 23.9701 14.8756C23.9701 15.5115 24.4858 16.0272 25.1217 16.0272C25.7576 16.0272 26.2733 15.5115 26.2733 14.8756C26.2733 14.2397 25.7576 13.724 25.1217 13.724V13.724ZM19.9976 15.0706C17.2751 15.0706 15.0684 17.2785 15.0684 20.0009C15.0684 22.7233 17.2751 24.93 19.9976 24.93C22.72 24.93 24.9256 22.7233 24.9256 20.0009C24.9256 17.2785 22.72 15.0706 19.9976 15.0706V15.0706ZM19.9976 16.8007C24.228 16.8007 24.2334 23.201 19.9976 23.201C15.7682 23.201 15.7617 16.8007 19.9976 16.8007Z" fill="white"/>
</g>
<defs>
<clipPath id="clip0_9_3115">
<rect width="26" height="26" fill="white" transform="translate(7 7)"/>
</clipPath>
</defs>
</svg>
