<svg width="40" height="40" viewBox="0 0 40 40" fill="none" xmlns="http://www.w3.org/2000/svg">
<rect width="40" height="40" rx="8" fill="white"/>
<g clip-path="url(#clip0_9_3105)">
<path d="M30.9947 31V30.9991H31.0002V22.9306C31.0002 18.9835 30.1504 15.9429 25.5359 15.9429C23.3176 15.9429 21.8289 17.1602 21.2212 18.3143H21.157V16.3114H16.7817V30.9991H21.3376V23.7263C21.3376 21.8114 21.7006 19.9597 24.072 19.9597C26.4086 19.9597 26.4434 22.145 26.4434 23.8491V31H30.9947Z" fill="black"/>
<path d="M9.36304 16.312H13.9244V30.9998H9.36304V16.312Z" fill="black"/>
<path d="M11.6418 9C10.1834 9 9 10.1834 9 11.6418C9 13.1003 10.1834 14.3084 11.6418 14.3084C13.1003 14.3084 14.2837 13.1003 14.2837 11.6418C14.2828 10.1834 13.0993 9 11.6418 9V9Z" fill="black"/>
</g>
<defs>
<clipPath id="clip0_9_3105">
<rect width="22" height="22" fill="white" transform="translate(9 9)"/>
</clipPath>
</defs>
</svg>
