<svg width="45" height="45" viewBox="0 0 45 45" fill="none" xmlns="http://www.w3.org/2000/svg">
<path opacity="0.4" d="M20.0449 4.62788C21.3315 3.52573 23.4386 3.52573 24.7439 4.62788L27.69 7.16841C28.2494 7.6541 29.2936 8.04639 30.0395 8.04639H33.2094C35.1859 8.04639 36.8082 9.67158 36.8082 11.6517V14.8274C36.8082 15.5559 37.1997 16.6207 37.6846 17.1811L40.2205 20.1326C41.3206 21.4215 41.3206 23.5324 40.2205 24.8401L37.6846 27.7916C37.1997 28.352 36.8082 29.3981 36.8082 30.1453V33.3209C36.8082 35.3011 35.1859 36.9263 33.2094 36.9263H30.0395C29.3123 36.9263 28.2494 37.3185 27.69 37.8042L24.7439 40.3448C23.4572 41.4469 21.3502 41.4469 20.0449 40.3448L17.0988 37.8042C16.5394 37.3185 15.4952 36.9263 14.7493 36.9263H11.5235C9.54692 36.9263 7.92467 35.3011 7.92467 33.3209V30.1266C7.92467 29.3981 7.5331 28.352 7.06693 27.7916L4.54965 24.8214C3.46815 23.5324 3.46815 21.4402 4.54965 20.1513L7.06693 17.1811C7.5331 16.6207 7.92467 15.5746 7.92467 14.846V11.633C7.92467 9.6529 9.54692 8.02771 11.5235 8.02771H14.7493C15.4765 8.02771 16.5394 7.63542 17.0988 7.14973L20.0449 4.62788Z" fill="#F07922"/>
<path d="M20.1197 28.3889C19.7467 28.3889 19.3925 28.2394 19.1314 27.9779L14.6189 23.4572C14.0782 22.9155 14.0782 22.0188 14.6189 21.4771C15.1597 20.9354 16.0547 20.9354 16.5955 21.4771L20.1197 25.0077L28.1377 16.9751C28.6784 16.4334 29.5735 16.4334 30.1142 16.9751C30.655 17.5169 30.655 18.4135 30.1142 18.9553L21.1079 27.9779C20.8469 28.2394 20.4926 28.3889 20.1197 28.3889Z" fill="#F07922"/>
</svg>
